<svg aria-hidden="true" style="position: absolute; width: 0; height: 0; overflow: hidden;" version="1.1" xmlns="http://www.w3.org/2000/svg" xmlns:xlink="http://www.w3.org/1999/xlink">
<defs>
<symbol id="icon-spinner" viewBox="0 0 32 32">
<path d="M16 32c-2.159 0-4.256-0.422-6.228-1.256-1.906-0.806-3.616-1.962-5.084-3.431s-2.625-3.178-3.431-5.084c-0.834-1.972-1.256-4.069-1.256-6.228 0-0.622 0.503-1.125 1.125-1.125s1.125 0.503 1.125 1.125c0 1.856 0.362 3.656 1.081 5.353 0.694 1.637 1.684 3.109 2.947 4.372s2.734 2.256 4.372 2.947c1.694 0.716 3.494 1.078 5.35 1.078s3.656-0.363 5.353-1.081c1.637-0.694 3.109-1.684 4.372-2.947s2.256-2.734 2.947-4.372c0.716-1.694 1.078-3.494 1.078-5.35s-0.363-3.656-1.081-5.353c-0.73-1.699-1.724-3.15-2.947-4.372l-0-0c-1.221-1.225-2.672-2.219-4.283-2.913l-0.089-0.034c-1.694-0.716-3.494-1.078-5.35-1.078-0.622 0-1.125-0.503-1.125-1.125s0.503-1.125 1.125-1.125c2.159 0 4.256 0.422 6.228 1.256 1.906 0.806 3.616 1.962 5.084 3.431s2.622 3.181 3.428 5.084c0.834 1.972 1.256 4.069 1.256 6.228s-0.422 4.256-1.256 6.228c-0.803 1.906-1.959 3.616-3.428 5.084s-3.181 2.622-5.084 3.428c-1.972 0.837-4.069 1.259-6.228 1.259z"></path>
</symbol>
<symbol id="icon-file" viewBox="0 0 32 32">
<path d="M28.681 7.159c-0.694-0.947-1.662-2.053-2.724-3.116s-2.169-2.030-3.116-2.724c-1.612-1.182-2.393-1.319-2.841-1.319h-15.5c-1.378 0-2.5 1.121-2.5 2.5v27c0 1.378 1.122 2.5 2.5 2.5h23c1.378 0 2.5-1.122 2.5-2.5v-19.5c0-0.448-0.137-1.23-1.319-2.841zM24.543 5.457c0.959 0.959 1.712 1.825 2.268 2.543h-4.811v-4.811c0.718 0.556 1.584 1.309 2.543 2.268zM28 29.5c0 0.271-0.229 0.5-0.5 0.5h-23c-0.271 0-0.5-0.229-0.5-0.5v-27c0-0.271 0.229-0.5 0.5-0.5 0 0 15.499-0 15.5 0v7c0 0.552 0.448 1 1 1h7v19.5z"></path>
<path d="M23 26h-14c-0.552 0-1-0.448-1-1s0.448-1 1-1h14c0.552 0 1 0.448 1 1s-0.448 1-1 1z"></path>
<path d="M23 22h-14c-0.552 0-1-0.448-1-1s0.448-1 1-1h14c0.552 0 1 0.448 1 1s-0.448 1-1 1z"></path>
<path d="M23 18h-14c-0.552 0-1-0.448-1-1s0.448-1 1-1h14c0.552 0 1 0.448 1 1s-0.448 1-1 1z"></path>
</symbol>
<symbol id="icon-directory" viewBox="0 0 32 32">
<path d="M14 4l4 4h14v22h-32v-26z"></path>
</symbol>
<symbol id="icon-new-directory" viewBox="0 0 32 32">
<path d="M18 8l-4-4h-14v26h32v-22h-14zM22 22h-4v4h-4v-4h-4v-4h4v-4h4v4h4v4z"></path>
</symbol>
<symbol id="icon-download" viewBox="0 0 32 32">
<path d="M16 18l8-8h-6v-8h-4v8h-6zM23.273 14.727l-2.242 2.242 8.128 3.031-13.158 4.907-13.158-4.907 8.127-3.031-2.242-2.242-8.727 3.273v8l16 6 16-6v-8z"></path>
</symbol>
<symbol id="icon-upload" viewBox="0 0 32 32">
<path d="M14 18h4v-8h6l-8-8-8 8h6zM20 13.5v3.085l9.158 3.415-13.158 4.907-13.158-4.907 9.158-3.415v-3.085l-12 4.5v8l16 6 16-6v-8z"></path>
</symbol>
<symbol id="icon-go-back" viewBox="0 0 32 32">
<path d="M23.808 32c3.554-6.439 4.153-16.26-9.808-15.932v7.932l-12-12 12-12v7.762c16.718-0.436 18.58 14.757 9.808 24.238z"></path>
</symbol>
<symbol id="icon-reload" viewBox="0 0 32 32">
<path d="M32 12h-12l4.485-4.485c-2.267-2.266-5.28-3.515-8.485-3.515s-6.219 1.248-8.485 3.515c-2.266 2.267-3.515 5.28-3.515 8.485s1.248 6.219 3.515 8.485c2.267 2.266 5.28 3.515 8.485 3.515s6.219-1.248 8.485-3.515c0.189-0.189 0.371-0.384 0.546-0.583l3.010 2.634c-2.933 3.349-7.239 5.464-12.041 5.464-8.837 0-16-7.163-16-16s7.163-16 16-16c4.418 0 8.418 1.791 11.313 4.687l4.687-4.687v12z"></path>
</symbol>
<symbol id="icon-delete" viewBox="0 0 32 32">
<path d="M4 10v20c0 1.1 0.9 2 2 2h18c1.1 0 2-0.9 2-2v-20h-22zM10 28h-2v-14h2v14zM14 28h-2v-14h2v14zM18 28h-2v-14h2v14zM22 28h-2v-14h2v14z"></path>
<path d="M26.5 4h-6.5v-2.5c0-0.825-0.675-1.5-1.5-1.5h-7c-0.825 0-1.5 0.675-1.5 1.5v2.5h-6.5c-0.825 0-1.5 0.675-1.5 1.5v2.5h26v-2.5c0-0.825-0.675-1.5-1.5-1.5zM18 4h-6v-1.975h6v1.975z"></path>
</symbol>
<symbol id="icon-arrow" viewBox="0 0 32 32">
<path d="M11 23c0-0.278 0.116-0.555 0.341-0.753l7.14-6.247-7.14-6.247c-0.416-0.364-0.458-0.995-0.094-1.411s0.995-0.458 1.411-0.094l8 7c0.217 0.19 0.341 0.464 0.341 0.753s-0.125 0.563-0.341 0.753l-8 7c-0.416 0.364-1.047 0.322-1.411-0.094-0.166-0.19-0.247-0.424-0.247-0.658z"></path>
</symbol>
</defs>
</svg>
